<?xml version="1.0" encoding="utf-8"?>
<svg xmlns="http://www.w3.org/2000/svg" xmlns:xlink="http://www.w3.org/1999/xlink" style="margin: auto; background: none; display: block; shape-rendering: auto;" width="131px" height="131px" viewBox="0 0 100 100" preserveAspectRatio="xMidYMid">
<g transform="translate(50 50)">
<g>
<animateTransform attributeName="transform" type="rotate" values="0;45" keyTimes="0;1" dur="0.22883295194508008s" repeatCount="indefinite"></animateTransform><path d="M22.107690969434145 -15.5 L26.107690969434145 -15.5 L26.107690969434145 15.5 L22.107690969434145 15.5 A27 27 0 0 1 26.59265330925497 4.672343092471994 L26.59265330925497 4.672343092471994 L29.421080434001162 7.500770217218184 L7.500770217218189 29.421080434001155 L4.672343092471999 26.592653309254967 A27 27 0 0 1 15.500000000000004 22.10769096943414 L15.500000000000004 22.10769096943414 L15.500000000000004 26.10769096943414 L-15.499999999999996 26.10769096943415 L-15.499999999999996 22.10769096943415 A27 27 0 0 1 -4.672343092471995 26.592653309254967 L-4.672343092471995 26.592653309254967 L-7.500770217218185 29.42108043400116 L-29.421080434001155 7.500770217218191 L-26.592653309254967 4.672343092472 A27 27 0 0 1 -22.107690969434145 15.5 L-22.107690969434145 15.5 L-26.107690969434145 15.5 L-26.10769096943415 -15.499999999999995 L-22.10769096943415 -15.499999999999995 A27 27 0 0 1 -26.59265330925497 -4.672343092471994 L-26.59265330925497 -4.672343092471994 L-29.421080434001162 -7.500770217218184 L-7.5007702172181805 -29.421080434001162 L-4.67234309247199 -26.59265330925497 A27 27 0 0 1 -15.500000000000012 -22.107690969434135 L-15.500000000000012 -22.107690969434135 L-15.500000000000012 -26.107690969434135 L15.500000000000004 -26.10769096943414 L15.500000000000004 -22.10769096943414 A27 27 0 0 1 4.67234309247198 -26.59265330925497 L4.67234309247198 -26.59265330925497 L7.50077021721817 -29.421080434001162 L29.42108043400116 -7.500770217218182 L26.59265330925497 -4.6723430924719915 A27 27 0 0 1 22.107690969434135 -15.500000000000012 M0 -15A15 15 0 1 0 0 15 A15 15 0 1 0 0 -15" fill="#8a29df"></path></g></g>
<!-- [ldio] generated by https://loading.io/ --></svg>